<svg width="48" height="48" xmlns="http://www.w3.org/2000/svg" data-name="Your Icons">

 <title/>
 <g>
  <title>Layer 1</title>
  <path id="svg_1" fill="#ffffff" d="m43.52,23.17l-2.31,-4.17l-1.12,-2a3.82,3.82 0 0 0 -3.34,-2l-8.75,0l0,0a4,4 0 0 0 -4,-4l-16,0a4,4 0 0 0 -4,4l0,15a4,4 0 0 0 4,4l0.1,0a5,5 0 0 0 9.8,0l12.2,0a5,5 0 0 0 9.8,0l0.28,0a3.82,3.82 0 0 0 3.82,-3.82l0,-5.18a3.73,3.73 0 0 0 -0.48,-1.83zm-3.52,-2.17l1.1,2l0.56,1l-6.66,0a1,1 0 0 1 -1,-1l0,-1a1,1 0 0 1 1,-1l5,0zm-27,15a3,3 0 0 1 -2.94,-2.45a2.51,2.51 0 0 1 -0.06,-0.55a3,3 0 0 1 6,0a2.51,2.51 0 0 1 -0.06,0.55a3,3 0 0 1 -2.94,2.45zm4.9,-4l0,0l0,-0.09a5.16,5.16 0 0 0 -0.24,-0.79l-0.16,-0.32a3.67,3.67 0 0 0 -0.26,-0.48l-0.24,-0.32a3.79,3.79 0 0 0 -0.32,-0.38a2.65,2.65 0 0 0 -0.29,-0.29l-0.39,-0.33a4,4 0 0 0 -0.34,-0.23l-0.46,-0.25l-0.35,-0.16a4.75,4.75 0 0 0 -0.57,-0.18l-0.28,-0.08a4.56,4.56 0 0 0 -1.9,0l-0.31,0.08a4.75,4.75 0 0 0 -0.57,0.18l-0.35,0.16l-0.46,0.25a4,4 0 0 0 -0.41,0.23l-0.38,0.32a2.65,2.65 0 0 0 -0.29,0.29a3.79,3.79 0 0 0 -0.33,0.39c-0.08,0.11 -0.16,0.21 -0.24,0.33a3.67,3.67 0 0 0 -0.26,0.48c0,0.11 -0.11,0.21 -0.16,0.32a5.16,5.16 0 0 0 -0.24,0.79l0,0.09l-0.1,0a2,2 0 0 1 -2,-2l0,-15.01a2,2 0 0 1 2,-2l16,0a2,2 0 0 1 2,2l0,9l-15,0a1,1 0 0 0 0,2l15,0l0,6l-8.1,0zm17.1,4a3,3 0 0 1 -2.94,-2.45a2.51,2.51 0 0 1 -0.06,-0.55a3,3 0 0 1 6,0a2.51,2.51 0 0 1 -0.06,0.55a3,3 0 0 1 -2.94,2.45zm7,-5.82a1.83,1.83 0 0 1 -1.82,1.82l-0.28,0l0,-0.09a5.16,5.16 0 0 0 -0.24,-0.79l-0.16,-0.32a3.67,3.67 0 0 0 -0.26,-0.48c-0.08,-0.12 -0.16,-0.22 -0.24,-0.33a3.79,3.79 0 0 0 -0.32,-0.38a2.65,2.65 0 0 0 -0.29,-0.29l-0.39,-0.32a4,4 0 0 0 -0.34,-0.23l-0.46,-0.25l-0.35,-0.16a4.75,4.75 0 0 0 -0.57,-0.18l-0.28,-0.08a4.56,4.56 0 0 0 -1.9,0l-0.31,0.08a4.75,4.75 0 0 0 -0.57,0.18l-0.35,0.16l-0.46,0.25a4,4 0 0 0 -0.41,0.23l-0.38,0.32a2.65,2.65 0 0 0 -0.29,0.29a3.79,3.79 0 0 0 -0.33,0.39l-0.24,0.33a3.67,3.67 0 0 0 -0.26,0.48l-0.16,0.32a5.16,5.16 0 0 0 -0.24,0.79l0,0.09l-2.1,0l0,-15.01l8.75,0a1.82,1.82 0 0 1 1.59,0.94l0.59,1.06l-3.93,0a3,3 0 0 0 -3,3l0,1a3,3 0 0 0 3,3l7,0l0,4.18z" class="cls-1"/>
 </g>
</svg>