<svg xmlns="http://www.w3.org/2000/svg" xmlns:xlink="http://www.w3.org/1999/xlink" style="" version="1.1" xml:space="preserve" width="511.998" height="511.998"><rect id="backgroundrect" width="100%" height="100%" x="0" y="0" fill="none" stroke="none"/><g class="currentLayer" style=""><title>Layer 1</title><g id="svg_1" class="selected" fill="#ffffff" fill-opacity="1"><g id="svg_2" fill="#ffffff" fill-opacity="1"><g id="svg_3" fill="#ffffff" fill-opacity="1"><path d="M510.3468181872368,168.9961818127632 l-48.118,-94.824 V36.56618181276321 c0,-5.522 -4.476,-10 -10,-10 H58.629818187236786 c-5.522,0 -10,4.478 -10,10 v37.611 L0.513818187236786,168.9961818127632 C-0.19718181276321406,170.39818181276323 -0.5681818127632141,171.94918181276321 -0.5681818127632141,173.52118181276322 v24.601 c0,29.232 21.304,53.568 49.198,58.337 v210.105 H38.39681818723679 c-5.523,0 -10,4.478 -10,10 c0,5.522 4.477,10 10,10 h20.156 c0.025000000000000005,0 0.05100000000000001,0.004000000000000001 0.07700000000000001,0.004000000000000001 h273.6 h80.001 h40 h20.233 c5.522,0 10,-4.478 10,-10 c0,-5.522 -4.478,-10 -10,-10 h-10.233 V256.4591818127632 c27.895,-4.769 49.199,-29.104 49.199,-58.337 v-24.601 C511.4298181872368,171.94918181276321 511.0588181872368,170.39818181276323 510.3468181872368,168.9961818127632 zM68.62981818723678,46.56618181276321 h373.599 v20.003 H373.51181818723677 h-78.721 H216.07181818723677 h-78.722 h-68.72 V46.56618181276321 zM314.5788181872368,172.51118181276323 l-8.721,-85.942 h60.246 l26.927,88.44 v23.113 c0,21.614 -17.585,39.198 -39.2,39.198 c-21.615,0 -39.201,-17.584 -39.201,-39.198 v-24.601 C314.62981818723676,173.18418181276323 314.61281818723677,172.8471818127632 314.5788181872368,172.51118181276323 zM294.62981818723676,174.02718181276322 v24.095 h-0.0010000000000000002 c0,21.614 -17.584,39.198 -39.197,39.198 c-21.615,0 -39.201,-17.584 -39.201,-39.198 v-24.095 l8.878,-87.458 h60.646 L294.62981818723676,174.02718181276322 zM205.00681818723677,86.57018181276321 l-8.724,85.942 c-0.035,0.3350000000000001 -0.05200000000000001,0.6720000000000002 -0.05200000000000001,1.009 v24.601 c0,21.614 -17.584,39.198 -39.199,39.198 c-21.615,0 -39.199,-17.584 -39.199,-39.198 v-23.112 l26.928,-88.44 H205.00681818723677 zM19.431818187236786,198.12218181276322 v-22.209 l45.338,-89.344 h59.083 L98.26581818723679,170.6081818127632 c-0.28700000000000003,0.9440000000000001 -0.43400000000000005,1.9260000000000002 -0.43400000000000005,2.9130000000000003 v24.601 c0,21.614 -17.586,39.198 -39.202,39.198 C37.01581818723679,237.32018181276322 19.431818187236786,219.73618181276322 19.431818187236786,198.12218181276322 zM402.23081818723676,466.5681818127632 h-60.001 v-30.002 v-40 h10.001 c5.523,0 10,-4.477 10,-10 c0,-5.522 -4.477,-10 -10,-10 h-10.001 V306.5681818127632 h60.001 V466.5681818127632 zM442.2288181872368,466.5681818127632 h-20 V296.5681818127632 c0,-5.522 -4.477,-10 -10,-10 h-80.001 H98.63081818723678 c-5.524,0 -10,4.478 -10,10 v139.998 c0,5.523 4.476,10 10,10 h223.599 V466.5681818127632 h-253.6 V256.4591818127632 c16.294,-2.785 30.339,-12.238 39.202,-25.455 c10.632,15.855 28.715,26.316 49.199,26.316 s38.566,-10.461 49.199,-26.316 c10.633000000000001,15.855 28.717,26.316 49.201,26.316 c20.482,0 38.566,-10.46 49.197,-26.316 c10.633000000000001,15.856 28.717,26.316 49.201,26.316 c20.484,0 38.568,-10.461 49.2,-26.316 c8.862,13.217 22.907,22.67 39.2,25.455 V466.5681818127632 zM206.16181818723678,306.5681818127632 h34.84 l-19.015,19.012 c-3.9050000000000002,3.904 -3.9050000000000002,10.236 -0.0010000000000000002,14.142 c1.953,1.953 4.5120000000000005,2.93 7.072,2.93 c2.559,0 5.117,-0.977 7.07,-2.9290000000000003 L269.2868181872368,306.5681818127632 h52.942 v119.998 H108.63081818723678 v-22.467 L206.16181818723678,306.5681818127632 zM108.63081818723678,375.8141818127632 V306.5681818127632 h69.246 L108.63081818723678,375.8141818127632 zM491.4298181872368,198.12218181276322 c0,21.614 -17.585,39.198 -39.199,39.198 c-21.615,0 -39.2,-17.584 -39.2,-39.198 v-24.601 c0,-0.987 -0.14600000000000002,-1.969 -0.43400000000000005,-2.9130000000000003 l-25.587,-84.039 h59.082 l45.338,89.344 V198.12218181276322 z" id="svg_4" fill="#ffffff" fill-opacity="1"/><path d="M208.5748181872368,363.1341818127632 c2.55,0 5.1,-0.9690000000000001 7.051,-2.908 l0.16700000000000004,-0.16600000000000004 c3.917,-3.8930000000000002 3.935,-10.225 0.04200000000000001,-14.142 c-3.895,-3.917 -10.227,-3.936 -14.143,-0.04100000000000001 l-0.16700000000000004,0.16600000000000004 c-3.917,3.8930000000000002 -3.934,10.226 -0.04200000000000001,14.142 C203.4378181872368,362.15118181276324 206.0058181872368,363.1341818127632 208.5748181872368,363.1341818127632 z" id="svg_5" fill="#ffffff" fill-opacity="1"/><path d="M9.667818187236787,466.5641818127632 H9.431818187236786 c-5.523,0 -10,4.478 -10,10 c0,5.522 4.477,10 10,10 h0.23600000000000002 c5.522,0 10,-4.478 10,-10 C19.667818187236787,471.0421818127632 15.190818187236786,466.5641818127632 9.667818187236787,466.5641818127632 z" id="svg_6" fill="#ffffff" fill-opacity="1"/><path d="M501.4298181872368,466.5681818127632 h-0.23600000000000002 c-5.523,0 -10,4.478 -10,10 c0,5.522 4.477,10 10,10 h0.23600000000000002 c5.523,0 10,-4.478 10,-10 C511.4298181872368,471.0461818127632 506.9528181872368,466.5681818127632 501.4298181872368,466.5681818127632 z" id="svg_7" fill="#ffffff" fill-opacity="1"/></g></g></g><g id="svg_8"/><g id="svg_9"/><g id="svg_10"/><g id="svg_11"/><g id="svg_12"/><g id="svg_13"/><g id="svg_14"/><g id="svg_15"/><g id="svg_16"/><g id="svg_17"/><g id="svg_18"/><g id="svg_19"/><g id="svg_20"/><g id="svg_21"/><g id="svg_22"/></g></svg>