<?xml version="1.0" encoding="utf-8"?>
<svg version="1.0" width="1500.000000pt" height="1600.000000pt" viewBox="530.065 220.898 574.567 976.038" preserveAspectRatio="xMidYMid meet" xmlns="http://www.w3.org/2000/svg">
  <g transform="matrix(0.142512, 0, 0, -0.134735, -266.179687, 2074.390381)" fill="#000000" stroke="none" style="">
    <path d="M7085 13651 c-12 -5 -26 -15 -32 -22 -6 -8 -18 -137 -27 -304 -9 -159 -24 -392 -32 -516 -7 -125 -14 -234 -14 -243 0 -12 -9 -16 -34 -16 -18 0 -38 -6 -44 -12 -5 -7 -17 -159 -26 -338 -9 -179 -18 -356 -21 -393 -5 -84 0 -97 36 -97 16 0 29 -4 29 -8 0 -14 -42 -48 -115 -92 -262 -159 -412 -343 -462 -565 -21 -95 -39 -712 -63 -2215 -24 -1491 -24 -1459 -5 -1530 47 -181 170 -295 358 -334 114 -24 1719 -24 1833 0 192 39 306 144 360 329 16 55 16 104 11 580 -14 1058 -42 2502 -57 2900 -10 247 -23 322 -76 428 -69 137 -191 265 -349 368 -181 116 -196 132 -135 141 l25 3 -3 125 c-5 240 -34 685 -44 697 -6 7 -25 13 -43 13 l-32 0 -17 283 c-48 802 -46 781 -67 802 -19 19 -34 20 -477 22 -251 1 -466 -2 -477 -6z m926 -321 c9 -140 22 -349 28 -465 6 -115 14 -234 17 -262 l6 -53 -95 0 -95 0 -7 268 c-4 147 -10 319 -14 382 l-6 115 -286 3 c-222 2 -289 -1 -296 -10 -6 -7 -15 -175 -22 -383 -7 -203 -14 -371 -16 -373 -4 -5 -175 -5 -179 0 -2 1 2 91 9 198 7 107 21 335 30 505 9 171 19 316 21 323 3 10 97 12 446 10 l443 -3 16 -255z m-220 -250 c4 -96 8 -251 10 -345 l4 -170 -255 0 -255 0 1 25 c1 14 5 162 9 330 3 168 9 313 12 323 4 16 22 17 236 15 l232 -3 6 -175z m-631 -955 l0 -355 -120 0 c-108 0 -120 2 -120 18 0 9 7 169 17 355 l17 337 103 0 103 0 0 -355z m360 0 l0 -356 -147 3 -148 3 -3 353 -2 352 150 0 150 0 0 -355z m360 0 l0 -356 -147 3 -148 3 -3 353 -2 352 150 0 150 0 0 -355z m270 318 c0 -21 7 -150 15 -288 8 -137 15 -281 15 -318 l0 -68 -117 3 -118 3 -3 353 -2 352 105 0 105 0 0 -37z m-22 -782 c23 -27 70 -66 104 -87 109 -65 245 -172 301 -237 121 -140 171 -266 179 -452 l3 -70 -1162 -3 -1163 -2 0 69 c0 152 49 290 147 419 66 86 137 147 288 247 64 42 129 94 150 120 l37 45 538 0 537 0 41 -49z m587 -923 c6 -20 24 -761 35 -1463 5 -352 12 -756 16 -897 l6 -258 -1222 0 -1223 0 6 83 c4 45 7 153 7 240 l0 157 244 0 c209 0 247 2 260 16 20 19 20 19 0 38 -13 14 -51 16 -260 16 l-244 0 0 74 c0 40 3 88 6 105 l7 31 242 0 c203 0 245 2 255 15 10 12 10 18 0 30 -10 13 -52 15 -256 15 l-244 0 0 120 0 120 244 0 c204 0 246 2 256 15 10 12 10 18 0 30 -10 12 -55 15 -254 17 l-241 3 0 115 0 115 241 3 c199 2 244 5 254 17 10 12 10 18 0 30 -10 13 -51 15 -252 15 l-239 0 3 106 3 105 231 -1 c200 -1 234 2 248 15 20 20 20 20 0 39 -13 14 -50 16 -250 16 l-234 0 0 83 c0 45 3 92 6 105 l6 22 234 0 c219 0 234 1 243 19 20 36 -6 40 -245 43 l-229 3 4 320 c1 176 5 323 8 328 2 4 526 7 1164 7 919 0 1160 -3 1164 -12z m60 -3019 c4 -200 4 -334 -2 -340 -5 -5 -491 -8 -1229 -7 l-1219 3 4 330 c2 182 5 333 8 338 2 4 550 7 1217 7 l1214 0 7 -331z m-23 -438 c-4 -40 -71 -140 -119 -176 -25 -19 -70 -45 -101 -57 l-57 -23 -898 -3 c-979 -3 -965 -3 -1064 54 -79 46 -163 156 -163 214 l0 20 1203 -2 1202 -3 -3 -24z" style="stroke-miterlimit: 5; fill-rule: nonzero; paint-order: stroke; stroke: rgb(0, 0, 0); stroke-width: 120px;"/>
    <path d="M7478 13143 c-85 -53 -87 -184 -3 -239 115 -75 255 50 201 180 -28 67 -134 98 -198 59z m123 -72 c34 -35 36 -59 8 -95 -16 -20 -29 -26 -60 -26 -34 0 -42 5 -59 32 -23 38 -19 64 16 96 34 30 60 28 95 -7z" style="stroke-miterlimit: 6; stroke: rgb(186, 218, 85); stroke-width: 60px;"/>
  </g>
</svg>